#!OML:ASF E:\motion texture\Top Level 1\Subject 1\Session 1\male.ASF
:FULLY-SPECIFIED
:DEGREES
308
root -10.5988 18.0935 4.01966 540.115 -87.686 -542.633
lowerback 6.48417 -5.08556 -3.08437
upperback -1.19307 -6.94783 2.45441
thorax -4.18857 -3.35282 4.93041
lowerneck -19.3203 -0.665234 -3.13784
upperneck 16.6559 -1.09036 4.91594
head 8.40741 -0.214873 2.0341
rclavicle -1.3977e-014 -1.03368e-014
rhumerus -62.1979 4.26481 -72.5725
rradius 66.3087
rwrist 0.683476
rhand -10.2244 -10.0809
rfingers 7.12502
rthumb 15.7675 -39.4587
lclavicle -1.3977e-014 -1.03368e-014
lhumerus -17.8178 -16.9392 94.6652
lradius 67.3223
lwrist -1.75064
lhand -12.2386 2.57229
lfingers 7.12502
lthumb 13.8271 32.0927
rfemur -75.1951 -4.75501 21.3737
rtibia 78.296
rfoot 555.486 0.213388
rtoes 21.1406
lfemur -0.568376 -7.11972 -26.033
ltibia 19.0392
lfoot 347.839 0.755313
ltoes 6.36988
309
root -10.7281 18.0975 4.01013 538.961 -87.7158 -541.511
lowerback 6.5817 -5.11688 -3.10513
upperback -1.17699 -6.99236 2.50431
thorax -4.21342 -3.37373 5.00667
lowerneck -19.3449 -0.654045 -3.12452
upperneck 16.5898 -1.08758 4.9748
head 8.38961 -0.206209 2.0516
rclavicle 5.03049e-014 1.82882e-014
rhumerus -62.2844 4.08323 -72.3431
rradius 66.4711
rwrist 0.571287
rhand -10.3108 -11.1543
rfingers 7.12502
rthumb 15.6844 -40.5386
lclavicle 5.03049e-014 1.82882e-014
lhumerus -17.9755 -16.763 94.6425
lradius 67.3882
lwrist -1.75914
lhand -12.187 2.55152
lfingers 7.12502
lthumb 13.8768 32.0686
rfemur -76.3964 -4.73553 21.7427
rtibia 79.1192
rfoot 555.473 0.0733424
rtoes 20.7905
lfemur 0.190205 -7.06801 -25.9907
ltibia 18.5714
lfoot 347.657 0.643299
ltoes 6.30483
310
root -10.8569 18.0983 4.00042 538.256 -87.7511 -540.813
lowerback 6.66636 -5.13949 -3.13475
upperback -1.16962 -7.026 2.5417
thorax -4.24168 -3.38877 5.0733
lowerneck -19.3693 -0.654344 -3.09875
upperneck 16.525 -1.10109 5.01885
head 8.37285 -0.20604 2.05996
rclavicle -8.41605e-014 8.74653e-015
rhumerus -62.3309 3.92956 -72.1882
rradius 66.6269
rwrist 0.469245
rhand -10.4275 -12.2715
rfingers 7.12502
rthumb 15.5719 -41.6646
lclavicle -8.41605e-014 8.74653e-015
lhumerus -18.1514 -16.6265 94.6331
lradius 67.4689
lwrist -1.71154
lhand -12.1311 2.54308
lfingers 7.12502
lthumb 13.9306 32.0564
rfemur -77.482 -4.73006 22.0816
rtibia 79.9959
rfoot 555.464 -0.0765527
rtoes 20.5332
lfemur 0.887405 -6.98878 -25.9563
ltibia 18.1626
lfoot 347.457 0.504613
ltoes 6.21663
311
root -10.9852 18.0962 3.99107 538.199 -87.7717 -540.739
lowerback 6.74576 -5.1487 -3.17681
upperback -1.17836 -7.04296 2.56751
thorax -4.28549 -3.39436 5.13412
lowerneck -19.3811 -0.663286 -3.07439
upperneck 16.4627 -1.12488 5.05515
head 8.35515 -0.211864 2.06457
rclavicle 4.39811e-015 -4.45278e-014
rhumerus -62.345 3.81803 -72.1042
rradius 66.7773
rwrist 0.373639
rhand -10.5862 -13.4059
rfingers 7.12502
rthumb 15.4191 -42.8108
lclavicle 4.39811e-015 -4.45278e-014
lhumerus -18.3533 -16.5088 94.6425
lradius 67.5594
lwrist -1.65516
lhand -12.0826 2.54135
lfingers 7.12502
lthumb 13.9774 32.0515
rfemur -78.4516 -4.7203 22.3802
rtibia 81.0643
rfoot 555.416 -10.773
rtoes 20.3186
lfemur 1.52624 -6.88484 -25.9461
ltibia 17.8065
lfoot 347.24 0.369732
ltoes 6.08027
312
root -11.1125 18.0911 3.98184 538.922 -87.8141 -541.414
lowerback 6.81413 -5.15461 -3.2354
upperback -1.19984 -7.05703 2.579
thorax -4.33656 -3.3976 5.18866
lowerneck -19.3886 -0.681262 -3.04587
upperneck 16.3974 -1.16063 5.08392
head 8.33618 -0.223965 2.06438
rclavicle 4.65777e-014 -6.36111e-015
rhumerus -62.3149 3.72644 -72.0852
rradius 66.9107
rwrist 0.272956
rhand -10.7769 -14.5127
rfingers 7.12502
rthumb 15.2354 -43.9317
lclavicle 4.65777e-014 -6.36111e-015
lhumerus -18.5674 -16.4144 94.6634
lradius 67.6574
lwrist -1.60976
lhand -12.0288 2.54688
lfingers 7.12502
lthumb 14.0293 32.0534
rfemur -79.3147 -4.74251 22.6319
rtibia 82.3889
rfoot 555.356 -21.5016
rtoes 20.053
lfemur 2.09734 -6.79177 -25.9699
ltibia 17.5093
lfoot 347.007 0.240829
ltoes 5.89022
313
root -11.2389 18.0833 3.97301 540.06 -87.8717 -542.482
lowerback 6.87804 -5.15831 -3.29431
upperback -1.22685 -7.0684 2.58071
thorax -4.39237 -3.39918 5.23297
lowerneck -19.4002 -0.706346 -3.00613
upperneck 16.3304 -1.20526 5.09472
head 8.31761 -0.241386 2.05513
rclavicle 9.03228e-015 3.18055e-014
rhumerus -62.2339 3.6566 -72.1286
rradius 67.0292
rwrist 0.157591
rhand -10.9963 -15.5512
rfingers 7.12502
rthumb 15.024 -44.9861
lclavicle 9.03228e-015 3.18055e-014
lhumerus -18.7797 -16.3299 94.688
lradius 67.7541
lwrist -1.60617
lhand -11.9831 2.54738
lfingers 7.12502
lthumb 14.0733 32.0509
rfemur -80.055 -4.78647 22.8468
rtibia 83.8558
rfoot 555.289 -32.2723
rtoes 19.7648
lfemur 2.61584 -6.71631 -26.0142
ltibia 17.2626
lfoot 346.757 0.132966
ltoes 5.65383
